<svg xmlns="http://www.w3.org/2000/svg" width="1200" height="760" viewBox="0 0 1200 760">
<defs><linearGradient id="bg" x1="0" x2="1" y1="0" y2="1"><stop stop-color="#0b1f33"/><stop offset="1" stop-color="#eafafa"/></linearGradient><filter id="s"><feDropShadow dx="0" dy="14" stdDeviation="14" flood-opacity=".18"/></filter></defs>
<rect width="1200" height="760" fill="url(#bg)"/><text x="70" y="84" font-family="Arial" font-size="34" font-weight="800" fill="#72e5e5">n8n MCP CRM Agent Canvas</text><text x="70" y="124" font-family="Arial" font-size="20" fill="#f7f4ee">Two-workflow AI agent pattern with controlled Google Sheets CRUD actions</text><rect x="70" y="220" width="250" height="110" rx="22" fill="#ffffff" filter="url(#s)"/><text x="94" y="262" font-family="Arial" font-size="22" font-weight="800" fill="#0b1f33">Chat Trigger</text><text x="94" y="296" font-family="Arial" font-size="16" fill="#3f5063">User asks in plain English</text><rect x="390" y="220" width="250" height="110" rx="22" fill="#ffffff" filter="url(#s)"/><text x="414" y="262" font-family="Arial" font-size="22" font-weight="800" fill="#0b1f33">AI Agent</text><text x="414" y="296" font-family="Arial" font-size="16" fill="#3f5063">Gemini + Memory + MCP Client</text><rect x="730" y="175" width="330" height="90" rx="22" fill="#f7f4ee" filter="url(#s)"/><text x="754" y="217" font-family="Arial" font-size="22" font-weight="800" fill="#0b1f33">MCP Server</text><text x="754" y="251" font-family="Arial" font-size="16" fill="#3f5063">Executes safe data operations</text><rect x="730" y="300" width="330" height="90" rx="22" fill="#f7f4ee" filter="url(#s)"/><text x="754" y="342" font-family="Arial" font-size="22" font-weight="800" fill="#0b1f33">Google Sheets CRUD</text><text x="754" y="376" font-family="Arial" font-size="16" fill="#3f5063">Create • Read • Update • Delete</text><rect x="390" y="455" width="250" height="110" rx="22" fill="#ffffff" filter="url(#s)"/><text x="414" y="497" font-family="Arial" font-size="22" font-weight="800" fill="#0b1f33">Guardrails</text><text x="414" y="531" font-family="Arial" font-size="16" fill="#3f5063">Get rows before update/delete</text><path d="M320,275 C355,275 355,275 390,275" fill="none" stroke="#72e5e5" stroke-width="5" stroke-linecap="round"/><path d="M640,275 C685,275 685,220 730,220" fill="none" stroke="#72e5e5" stroke-width="5" stroke-linecap="round"/><path d="M895,265 C895,265 895,300 895,300" fill="none" stroke="#72e5e5" stroke-width="5" stroke-linecap="round"/><path d="M730,345 C685,345 685,510 640,510" fill="none" stroke="#72e5e5" stroke-width="5" stroke-linecap="round"/></svg>