<svg xmlns="http://www.w3.org/2000/svg" width="1200" height="760" viewBox="0 0 1200 760">
<defs><linearGradient id="bg" x1="0" x2="1" y1="0" y2="1"><stop stop-color="#0b1f33"/><stop offset="1" stop-color="#eafafa"/></linearGradient><filter id="s"><feDropShadow dx="0" dy="14" stdDeviation="14" flood-opacity=".18"/></filter></defs>
<rect width="1200" height="760" fill="url(#bg)"/><text x="70" y="84" font-family="Arial" font-size="34" font-weight="800" fill="#72e5e5">PORR Multi-Agent Decision Workflow</text><text x="70" y="124" font-family="Arial" font-size="20" fill="#f7f4ee">Problem → Options → Risks → Recommendation with Gemini Search grounding</text><rect x="70" y="290" width="210" height="100" rx="22" fill="#ffffff" filter="url(#s)"/><text x="94" y="332" font-family="Arial" font-size="22" font-weight="800" fill="#0b1f33">Chat</text><text x="94" y="366" font-family="Arial" font-size="16" fill="#3f5063">Business question</text><rect x="340" y="290" width="230" height="100" rx="22" fill="#ffffff" filter="url(#s)"/><text x="364" y="332" font-family="Arial" font-size="22" font-weight="800" fill="#0b1f33">Orchestrator</text><text x="364" y="366" font-family="Arial" font-size="16" fill="#3f5063">Routes and merges outputs</text><rect x="650" y="160" width="220" height="92" rx="22" fill="#ffffff" filter="url(#s)"/><text x="674" y="202" font-family="Arial" font-size="22" font-weight="800" fill="#0b1f33">Problem Agent</text><text x="674" y="236" font-family="Arial" font-size="16" fill="#3f5063">Search-grounded problem</text><rect x="650" y="285" width="220" height="92" rx="22" fill="#ffffff" filter="url(#s)"/><text x="674" y="327" font-family="Arial" font-size="22" font-weight="800" fill="#0b1f33">Options Agent</text><text x="674" y="361" font-family="Arial" font-size="16" fill="#3f5063">Grounded options</text><rect x="650" y="410" width="220" height="92" rx="22" fill="#ffffff" filter="url(#s)"/><text x="674" y="452" font-family="Arial" font-size="22" font-weight="800" fill="#0b1f33">Risks Agent</text><text x="674" y="486" font-family="Arial" font-size="16" fill="#3f5063">Risks and limitations</text><rect x="920" y="285" width="220" height="92" rx="22" fill="#ffffff" filter="url(#s)"/><text x="944" y="327" font-family="Arial" font-size="22" font-weight="800" fill="#0b1f33">Recommendation</text><text x="944" y="361" font-family="Arial" font-size="16" fill="#3f5063">Final practical answer</text><rect x="475" y="560" width="250" height="90" rx="22" fill="#f7f4ee" filter="url(#s)"/><text x="499" y="602" font-family="Arial" font-size="22" font-weight="800" fill="#0b1f33">Google Doc</text><text x="499" y="636" font-family="Arial" font-size="16" fill="#3f5063">Structured PORR output</text><path d="M280,340 C310,340 310,340 340,340" fill="none" stroke="#72e5e5" stroke-width="5" stroke-linecap="round"/><path d="M570,340 C610,340 610,205 650,205" fill="none" stroke="#72e5e5" stroke-width="5" stroke-linecap="round"/><path d="M570,340 C610,340 610,330 650,330" fill="none" stroke="#72e5e5" stroke-width="5" stroke-linecap="round"/><path d="M570,340 C610,340 610,455 650,455" fill="none" stroke="#72e5e5" stroke-width="5" stroke-linecap="round"/><path d="M870,205 C895,205 895,330 920,330" fill="none" stroke="#72e5e5" stroke-width="5" stroke-linecap="round"/><path d="M870,330 C895,330 895,330 920,330" fill="none" stroke="#72e5e5" stroke-width="5" stroke-linecap="round"/><path d="M870,455 C895,455 895,330 920,330" fill="none" stroke="#72e5e5" stroke-width="5" stroke-linecap="round"/><path d="M1030,377 C815,377 815,560 600,560" fill="none" stroke="#72e5e5" stroke-width="5" stroke-linecap="round"/></svg>